M48
METRIC,LZ,000.000
;FILE_FORMAT=3:3
;TYPE=PLATED
;Layer: PTH_Through
;EasyEDA v6.5.48, 2025-03-21 20:09:15
;50cb3e7bfd794b938473e165b02c6de4,58ee3c18bac3456481f83482aa94e6a4,10
;Gerber Generator version 0.2
;Holesize 1 = 0.301 mm
T01C0.301
;Holesize 2 = 0.306 mm
T02C0.306
;Holesize 3 = 0.610 mm
T03C0.610
%
G05
G90
T01
X028131Y015685
X028131Y014415
X028131Y013145
X028131Y011875
X030099Y016383
X030099Y015113
X030099Y013843
X030099Y012573
T02
X021465Y013918
X023177Y016084
X027442Y015050
X020320Y016510
X021530Y017098
T03
X018415Y011306G85X018415Y011300
X019685Y011300G85X019685Y011306
X020955Y011300G85X020955Y011306
X022225Y011300G85X022225Y011306
X018415Y019035G85X018415Y019065
X019685Y019035G85X019685Y019065
X020955Y019035G85X020955Y019065
X022225Y019035G85X022225Y019065
M30
