G04 Layer: BottomLayer*
G04 EasyEDA v6.5.48, 2025-03-21 20:09:15*
G04 7f9d92732bb143c18f036d9dc2dda287,58ee3c18bac3456481f83482aa94e6a4,10*
G04 Gerber Generator version 0.2*
G04 Scale: 100 percent, Rotated: No, Reflected: No *
G04 Dimensions in millimeters *
G04 leading zeros omitted , absolute positions ,4 integer and 5 decimal *
%FSLAX45Y45*%
%MOMM*%

%ADD10C,0.2540*%
%ADD11O,0.6089904X2.2044914*%
%ADD12O,0.7500112X1.2500102*%
%ADD13C,0.5500*%
%ADD14C,0.6100*%
%ADD15C,0.0116*%

%LPD*%
G36*
X2166366Y1807921D02*
G01*
X2162505Y1808734D01*
X2159203Y1810918D01*
X2144420Y1825701D01*
X2142236Y1828952D01*
X2141474Y1832864D01*
X2141474Y1851456D01*
X2142388Y1855724D01*
X2145284Y1861870D01*
X2147671Y1870811D01*
X2148535Y1880463D01*
X2148535Y1894332D01*
X2149297Y1898243D01*
X2151481Y1901494D01*
X2154783Y1903730D01*
X2159355Y1904492D01*
X2163216Y1903730D01*
X2166518Y1901494D01*
X2168702Y1898243D01*
X2169464Y1894332D01*
X2169464Y1880463D01*
X2170328Y1870811D01*
X2172716Y1861870D01*
X2175611Y1855724D01*
X2176526Y1851456D01*
X2176526Y1818081D01*
X2175764Y1814220D01*
X2173579Y1810918D01*
X2170277Y1808734D01*
G37*

%LPD*%
G36*
X2040026Y1784654D02*
G01*
X2035962Y1785366D01*
X2032507Y1787652D01*
X2017420Y1802739D01*
X2015236Y1806041D01*
X2014474Y1809902D01*
X2014474Y1851456D01*
X2015388Y1855724D01*
X2018284Y1861870D01*
X2020671Y1870811D01*
X2021535Y1880463D01*
X2021535Y1894332D01*
X2022297Y1898243D01*
X2024481Y1901494D01*
X2027783Y1903730D01*
X2032355Y1904492D01*
X2036216Y1903730D01*
X2039518Y1901494D01*
X2041702Y1898243D01*
X2042464Y1894332D01*
X2042464Y1880463D01*
X2043328Y1870811D01*
X2045716Y1861870D01*
X2048611Y1855724D01*
X2049525Y1851456D01*
X2049525Y1798929D01*
X2049830Y1795780D01*
X2049373Y1791665D01*
X2047341Y1788109D01*
X2044039Y1785620D01*
G37*

%LPD*%
G36*
X2265680Y1752701D02*
G01*
X2261311Y1753717D01*
X2257806Y1756460D01*
X2255774Y1760474D01*
X2255723Y1764944D01*
X2257552Y1769008D01*
X2261514Y1774291D01*
X2265324Y1781860D01*
X2267610Y1789988D01*
X2268474Y1798929D01*
X2268474Y1839874D01*
X2269236Y1843735D01*
X2271420Y1847037D01*
X2274722Y1849221D01*
X2278634Y1850034D01*
X2904998Y1850034D01*
X2908858Y1849221D01*
X2912160Y1847037D01*
X2989122Y1770075D01*
X2991358Y1766773D01*
X2992120Y1762861D01*
X2991358Y1759000D01*
X2989122Y1755698D01*
X2985871Y1753514D01*
X2981960Y1752701D01*
G37*

%LPD*%
G36*
X2101646Y1722475D02*
G01*
X2097887Y1723288D01*
X2094738Y1725422D01*
X2084781Y1735378D01*
X2082596Y1738680D01*
X2081834Y1742592D01*
X2082596Y1746453D01*
X2084781Y1749755D01*
X2088083Y1751939D01*
X2091994Y1752752D01*
X2099716Y1752752D01*
X2106980Y1754073D01*
X2111044Y1754022D01*
X2114753Y1752396D01*
X2117496Y1749450D01*
X2118918Y1745640D01*
X2118715Y1741627D01*
X2116988Y1737969D01*
X2113940Y1733956D01*
X2111044Y1728114D01*
X2108708Y1725066D01*
X2105406Y1723085D01*
G37*

%LPD*%
G36*
X2960370Y1611223D02*
G01*
X2956052Y1611833D01*
X2952343Y1614170D01*
X2887573Y1678939D01*
X2885389Y1682242D01*
X2884576Y1686153D01*
X2885389Y1690014D01*
X2887573Y1693316D01*
X2890875Y1695500D01*
X2894736Y1696313D01*
X2987192Y1696313D01*
X2991561Y1695297D01*
X2995066Y1692554D01*
X2997047Y1688541D01*
X2997149Y1684070D01*
X2995269Y1680006D01*
X2991815Y1677111D01*
X2986684Y1674418D01*
X2980232Y1669389D01*
X2974898Y1663242D01*
X2970834Y1656130D01*
X2968142Y1648409D01*
X2966974Y1640332D01*
X2967380Y1632204D01*
X2969412Y1623720D01*
X2969514Y1619402D01*
X2967786Y1615389D01*
X2964535Y1612493D01*
G37*

%LPD*%
G36*
X3029864Y1550720D02*
G01*
X3026105Y1551127D01*
X3018028Y1553464D01*
X3012795Y1554581D01*
X3009950Y1556613D01*
X2985566Y1580946D01*
X2983382Y1584248D01*
X2982569Y1588109D01*
X2983331Y1592021D01*
X2985516Y1595272D01*
X2988767Y1597507D01*
X2992628Y1598320D01*
X3005836Y1595526D01*
X3013964Y1595526D01*
X3021990Y1597101D01*
X3025190Y1598371D01*
X3029102Y1599082D01*
X3032963Y1598269D01*
X3036214Y1596085D01*
X3038398Y1592783D01*
X3039160Y1588922D01*
X3039160Y1560880D01*
X3038449Y1557172D01*
X3036468Y1553972D01*
X3033471Y1551736D01*
G37*

%LPD*%
G36*
X2797403Y1482394D02*
G01*
X2793390Y1483868D01*
X2790291Y1486916D01*
X2788767Y1490929D01*
X2790190Y1504950D01*
X2788818Y1518615D01*
X2790139Y1522476D01*
X2792933Y1525524D01*
X2796692Y1527200D01*
X2800807Y1527251D01*
X2808986Y1525676D01*
X2817114Y1525676D01*
X2825140Y1527251D01*
X2832760Y1530248D01*
X2835046Y1531721D01*
X2838958Y1533194D01*
X2843174Y1532940D01*
X2846882Y1531010D01*
X2849524Y1527708D01*
X2850591Y1523644D01*
X2849930Y1519478D01*
X2847644Y1515922D01*
X2819044Y1487322D01*
X2816148Y1485290D01*
X2812796Y1484376D01*
X2804922Y1483614D01*
X2801670Y1482699D01*
G37*

%LPD*%
G36*
X3055569Y1347165D02*
G01*
X3051606Y1348028D01*
X3048304Y1350365D01*
X3046171Y1353769D01*
X3045510Y1357731D01*
X3046476Y1361643D01*
X3050489Y1370279D01*
X3052419Y1378204D01*
X3052673Y1383436D01*
X3053537Y1387094D01*
X3055620Y1390142D01*
X3064002Y1398473D01*
X3067304Y1400708D01*
X3071164Y1401470D01*
X3075076Y1400708D01*
X3078378Y1398473D01*
X3080562Y1395222D01*
X3081324Y1391310D01*
X3081324Y1372819D01*
X3080562Y1368958D01*
X3078378Y1365656D01*
X3062884Y1350162D01*
X3059531Y1347927D01*
G37*

%LPD*%
G36*
X2116785Y1291132D02*
G01*
X2112924Y1291844D01*
X2108352Y1293622D01*
X2104948Y1295755D01*
X2102662Y1299057D01*
X2101850Y1302969D01*
X2102612Y1306931D01*
X2104796Y1310284D01*
X2137664Y1343101D01*
X2140966Y1345285D01*
X2144826Y1346098D01*
X2151227Y1346098D01*
X2155088Y1345285D01*
X2158390Y1343101D01*
X2160625Y1339799D01*
X2161387Y1335938D01*
X2160625Y1332026D01*
X2158390Y1328724D01*
X2123795Y1294130D01*
X2120544Y1291945D01*
G37*

%LPD*%
G36*
X1996541Y1287119D02*
G01*
X1992274Y1288592D01*
X1988972Y1290675D01*
X1981047Y1293723D01*
X1975561Y1294739D01*
X1971548Y1296466D01*
X1968601Y1299718D01*
X1967280Y1303883D01*
X1967890Y1308201D01*
X1970227Y1311910D01*
X2235504Y1577187D01*
X2238806Y1579372D01*
X2242667Y1580134D01*
X2276754Y1580134D01*
X2280462Y1579473D01*
X2283612Y1577492D01*
X2290013Y1571650D01*
X2297226Y1567230D01*
X2305100Y1564132D01*
X2313482Y1562608D01*
X2321915Y1562608D01*
X2330297Y1564132D01*
X2338171Y1567230D01*
X2345385Y1571650D01*
X2351684Y1577390D01*
X2356764Y1584147D01*
X2360574Y1591767D01*
X2362860Y1599895D01*
X2363673Y1608328D01*
X2362860Y1616811D01*
X2358999Y1630019D01*
X2359558Y1634032D01*
X2361742Y1637538D01*
X2365095Y1639874D01*
X2369108Y1640738D01*
X2445867Y1640738D01*
X2449779Y1639925D01*
X2453030Y1637741D01*
X2455265Y1634439D01*
X2456027Y1630578D01*
X2455265Y1626666D01*
X2453030Y1623364D01*
X2209393Y1379728D01*
X2205939Y1377442D01*
X2201926Y1376730D01*
X2197912Y1377696D01*
X2194610Y1380185D01*
X2192578Y1383741D01*
X2192121Y1387856D01*
X2192477Y1391818D01*
X2191664Y1400302D01*
X2189378Y1408430D01*
X2185568Y1416050D01*
X2180488Y1422806D01*
X2174189Y1428546D01*
X2166975Y1432966D01*
X2159101Y1436065D01*
X2150719Y1437589D01*
X2142286Y1437589D01*
X2133904Y1436065D01*
X2126030Y1432966D01*
X2118817Y1428546D01*
X2112518Y1422806D01*
X2107438Y1416050D01*
X2103628Y1408430D01*
X2101342Y1400302D01*
X2100630Y1391056D01*
X2100072Y1386636D01*
X2097684Y1382928D01*
X2004822Y1290066D01*
X2001012Y1287627D01*
G37*

%LPD*%
G36*
X2272944Y1264056D02*
G01*
X2269185Y1264666D01*
X2265883Y1266596D01*
X2263546Y1269644D01*
X2261514Y1273708D01*
X2256434Y1280464D01*
X2250186Y1286205D01*
X2242972Y1290675D01*
X2235047Y1293723D01*
X2227122Y1295196D01*
X2223109Y1296924D01*
X2220163Y1300175D01*
X2218893Y1304340D01*
X2219452Y1308658D01*
X2221839Y1312367D01*
X2502763Y1593342D01*
X2506065Y1595526D01*
X2509977Y1596288D01*
X2584602Y1596288D01*
X2588514Y1595526D01*
X2591765Y1593342D01*
X2594000Y1590040D01*
X2594762Y1586128D01*
X2594000Y1582267D01*
X2591765Y1578965D01*
X2279853Y1267002D01*
X2276652Y1264869D01*
G37*

%LPD*%
G36*
X2158695Y1130808D02*
G01*
X2154783Y1131570D01*
X2151481Y1133805D01*
X2149297Y1137056D01*
X2148535Y1140968D01*
X2148535Y1154836D01*
X2147671Y1164488D01*
X2145284Y1173429D01*
X2142388Y1179576D01*
X2141474Y1183843D01*
X2141474Y1227785D01*
X2142236Y1231696D01*
X2144420Y1234948D01*
X2159203Y1249730D01*
X2162505Y1251915D01*
X2166366Y1252728D01*
X2170277Y1251915D01*
X2173579Y1249730D01*
X2175764Y1246428D01*
X2176526Y1242568D01*
X2176526Y1183843D01*
X2175611Y1179576D01*
X2172716Y1173429D01*
X2170328Y1164488D01*
X2169464Y1154836D01*
X2169464Y1140968D01*
X2168702Y1137056D01*
X2166518Y1133805D01*
X2163216Y1131570D01*
G37*

%LPD*%
G36*
X2285695Y1130808D02*
G01*
X2281783Y1131570D01*
X2278481Y1133805D01*
X2276297Y1137056D01*
X2275535Y1140968D01*
X2275535Y1154836D01*
X2274671Y1164488D01*
X2272487Y1172667D01*
X2272182Y1176172D01*
X2273096Y1179576D01*
X2275128Y1182471D01*
X2629865Y1537258D01*
X2633167Y1539443D01*
X2637078Y1540256D01*
X2694279Y1540256D01*
X2698292Y1539392D01*
X2701645Y1537055D01*
X2703830Y1533550D01*
X2704439Y1529537D01*
X2703372Y1525574D01*
X2701391Y1521561D01*
X2699054Y1513382D01*
X2698292Y1504950D01*
X2699054Y1496517D01*
X2701391Y1488338D01*
X2705150Y1480769D01*
X2710281Y1473962D01*
X2712720Y1471777D01*
X2715158Y1468374D01*
X2716022Y1464259D01*
X2716022Y1256538D01*
X2716733Y1249984D01*
X2718816Y1244041D01*
X2722219Y1238656D01*
X2724505Y1236116D01*
X2767330Y1193292D01*
X2769412Y1190244D01*
X2770276Y1186586D01*
X2770530Y1181354D01*
X2772460Y1173378D01*
X2775864Y1165961D01*
X2780588Y1159306D01*
X2786481Y1153668D01*
X2792984Y1149502D01*
X2796032Y1146454D01*
X2797556Y1142390D01*
X2797200Y1138123D01*
X2795168Y1134313D01*
X2791714Y1131722D01*
X2787497Y1130808D01*
G37*

%LPD*%
G36*
X2031695Y1130808D02*
G01*
X2027783Y1131570D01*
X2024481Y1133805D01*
X2022297Y1137056D01*
X2021535Y1140968D01*
X2021535Y1154836D01*
X2020671Y1164488D01*
X2018284Y1173429D01*
X2015388Y1179576D01*
X2014474Y1183843D01*
X2014474Y1215694D01*
X2015236Y1219606D01*
X2017420Y1222857D01*
X2032203Y1237640D01*
X2035505Y1239824D01*
X2039366Y1240637D01*
X2043277Y1239824D01*
X2046579Y1237640D01*
X2048764Y1234338D01*
X2049525Y1230477D01*
X2049525Y1183843D01*
X2048611Y1179576D01*
X2045716Y1173429D01*
X2043328Y1164488D01*
X2042464Y1154836D01*
X2042464Y1140968D01*
X2041702Y1137056D01*
X2039518Y1133805D01*
X2036216Y1131570D01*
G37*

%LPD*%
G36*
X1904695Y1130808D02*
G01*
X1900783Y1131570D01*
X1897481Y1133805D01*
X1895297Y1137056D01*
X1894535Y1140968D01*
X1894535Y1154836D01*
X1893671Y1164488D01*
X1891284Y1173429D01*
X1888388Y1179576D01*
X1887474Y1183843D01*
X1887474Y1224940D01*
X1888236Y1228801D01*
X1890420Y1232103D01*
X1905203Y1246886D01*
X1908505Y1249070D01*
X1912366Y1249832D01*
X1916277Y1249070D01*
X1919579Y1246886D01*
X1921764Y1243584D01*
X1922525Y1239672D01*
X1922525Y1183843D01*
X1921611Y1179576D01*
X1918716Y1173429D01*
X1916328Y1164488D01*
X1915515Y1154836D01*
X1915515Y1140968D01*
X1914702Y1137056D01*
X1912518Y1133805D01*
X1909216Y1131570D01*
G37*

%LPD*%
G36*
X2838602Y1130808D02*
G01*
X2834386Y1131722D01*
X2830931Y1134313D01*
X2828899Y1138123D01*
X2828544Y1142390D01*
X2830068Y1146454D01*
X2833116Y1149502D01*
X2839618Y1153668D01*
X2845511Y1159306D01*
X2850235Y1165961D01*
X2853639Y1173378D01*
X2855569Y1181354D01*
X2855976Y1189482D01*
X2854807Y1197559D01*
X2852115Y1205280D01*
X2848051Y1212392D01*
X2842717Y1218539D01*
X2836265Y1223568D01*
X2829001Y1227328D01*
X2821178Y1229614D01*
X2813304Y1230376D01*
X2809951Y1231290D01*
X2807055Y1233322D01*
X2778404Y1262024D01*
X2776067Y1265529D01*
X2775407Y1269695D01*
X2776524Y1273810D01*
X2779166Y1277061D01*
X2782925Y1278991D01*
X2787091Y1279245D01*
X2791053Y1277721D01*
X2793339Y1276248D01*
X2800959Y1273251D01*
X2808986Y1271676D01*
X2817114Y1271676D01*
X2825140Y1273251D01*
X2832760Y1276248D01*
X2839618Y1280668D01*
X2845511Y1286306D01*
X2850235Y1292961D01*
X2853639Y1300378D01*
X2855569Y1308354D01*
X2855976Y1316482D01*
X2854807Y1324559D01*
X2852115Y1332280D01*
X2848051Y1339392D01*
X2842717Y1345539D01*
X2836265Y1350568D01*
X2829001Y1354328D01*
X2821178Y1356614D01*
X2813050Y1357426D01*
X2804922Y1356614D01*
X2797098Y1354328D01*
X2784805Y1347927D01*
X2780334Y1347927D01*
X2776270Y1349908D01*
X2773426Y1353464D01*
X2772460Y1357833D01*
X2772460Y1398117D01*
X2773375Y1402334D01*
X2775966Y1405788D01*
X2779725Y1407820D01*
X2784043Y1408176D01*
X2788107Y1406652D01*
X2793339Y1403248D01*
X2800959Y1400251D01*
X2808986Y1398676D01*
X2817114Y1398676D01*
X2825140Y1400251D01*
X2832760Y1403248D01*
X2839618Y1407668D01*
X2845511Y1413306D01*
X2850235Y1419961D01*
X2853639Y1427378D01*
X2855569Y1435354D01*
X2855823Y1440586D01*
X2856687Y1444244D01*
X2858770Y1447292D01*
X2898597Y1487068D01*
X2902712Y1492250D01*
X2905455Y1497939D01*
X2906826Y1504086D01*
X2907030Y1507540D01*
X2907030Y1555191D01*
X2907842Y1559052D01*
X2910027Y1562354D01*
X2913329Y1564538D01*
X2917190Y1565351D01*
X2921101Y1564538D01*
X2924403Y1562354D01*
X2964180Y1522526D01*
X2966059Y1520037D01*
X2967024Y1517040D01*
X2966974Y1513332D01*
X2967380Y1505204D01*
X2969310Y1497228D01*
X2972714Y1489811D01*
X2977438Y1483156D01*
X2983331Y1477518D01*
X2990189Y1473098D01*
X2997809Y1470101D01*
X3005836Y1468526D01*
X3013964Y1468526D01*
X3021990Y1470101D01*
X3025190Y1471371D01*
X3029102Y1472082D01*
X3032963Y1471269D01*
X3036214Y1469085D01*
X3038398Y1465783D01*
X3039160Y1461922D01*
X3039160Y1457655D01*
X3038348Y1453743D01*
X3036163Y1450441D01*
X3015894Y1430172D01*
X3012998Y1428140D01*
X3009646Y1427226D01*
X3001772Y1426464D01*
X2993948Y1424178D01*
X2986684Y1420418D01*
X2980232Y1415389D01*
X2974898Y1409242D01*
X2970834Y1402130D01*
X2968142Y1394409D01*
X2966974Y1386332D01*
X2967380Y1378204D01*
X2969310Y1370228D01*
X2972714Y1362811D01*
X2977438Y1356156D01*
X2983331Y1350518D01*
X2990189Y1346098D01*
X2997809Y1343101D01*
X3005836Y1341526D01*
X3013964Y1341526D01*
X3021990Y1343101D01*
X3029610Y1346098D01*
X3031896Y1347571D01*
X3035858Y1349095D01*
X3040024Y1348841D01*
X3043783Y1346911D01*
X3046425Y1343660D01*
X3047542Y1339545D01*
X3046882Y1335379D01*
X3044545Y1331874D01*
X3015894Y1303172D01*
X3012998Y1301140D01*
X3009646Y1300226D01*
X3001772Y1299464D01*
X2993948Y1297178D01*
X2986684Y1293418D01*
X2980232Y1288389D01*
X2974898Y1282242D01*
X2970834Y1275130D01*
X2968142Y1267409D01*
X2966974Y1259332D01*
X2967380Y1251204D01*
X2969310Y1243228D01*
X2972714Y1235811D01*
X2977438Y1229156D01*
X2983331Y1223518D01*
X2990189Y1219098D01*
X2997809Y1216101D01*
X3005836Y1214526D01*
X3013964Y1214526D01*
X3021990Y1216101D01*
X3029610Y1219098D01*
X3036468Y1223518D01*
X3042361Y1229156D01*
X3047085Y1235811D01*
X3050489Y1243228D01*
X3052419Y1251204D01*
X3052673Y1256436D01*
X3053537Y1260094D01*
X3055620Y1263142D01*
X3129280Y1336802D01*
X3133394Y1341932D01*
X3136138Y1347622D01*
X3137560Y1353769D01*
X3137763Y1357223D01*
X3137763Y1689252D01*
X3137052Y1695805D01*
X3134969Y1701800D01*
X3131566Y1707134D01*
X3129280Y1709724D01*
X2951835Y1887169D01*
X2949651Y1890420D01*
X2948889Y1894332D01*
X2949651Y1898243D01*
X2951835Y1901494D01*
X2955137Y1903730D01*
X2959049Y1904492D01*
X3141065Y1904492D01*
X3145637Y1903425D01*
X3152648Y1899920D01*
X3155289Y1897989D01*
X3157220Y1895348D01*
X3160725Y1888337D01*
X3161792Y1883765D01*
X3161792Y1151534D01*
X3160725Y1146962D01*
X3157220Y1139952D01*
X3155289Y1137310D01*
X3152648Y1135380D01*
X3145637Y1131874D01*
X3143402Y1131062D01*
X3141065Y1130808D01*
G37*

%LPD*%
G36*
X1748434Y1130808D02*
G01*
X1743862Y1131874D01*
X1736852Y1135380D01*
X1734210Y1137310D01*
X1732280Y1139952D01*
X1728774Y1146962D01*
X1727707Y1151534D01*
X1727707Y1883765D01*
X1728774Y1888337D01*
X1732280Y1895348D01*
X1734210Y1897989D01*
X1736852Y1899920D01*
X1743862Y1903425D01*
X1748434Y1904492D01*
X1778355Y1904492D01*
X1782216Y1903730D01*
X1785518Y1901494D01*
X1787702Y1898243D01*
X1788515Y1894332D01*
X1788515Y1880463D01*
X1789328Y1870811D01*
X1791716Y1861870D01*
X1794611Y1855724D01*
X1795525Y1851456D01*
X1795525Y1798929D01*
X1796389Y1789988D01*
X1798675Y1781860D01*
X1802485Y1774291D01*
X1807565Y1767535D01*
X1813814Y1761794D01*
X1821027Y1757324D01*
X1828952Y1754276D01*
X1837283Y1752752D01*
X1845716Y1752752D01*
X1854047Y1754276D01*
X1861972Y1757324D01*
X1869186Y1761794D01*
X1875434Y1767535D01*
X1880514Y1774291D01*
X1884324Y1781860D01*
X1886610Y1789988D01*
X1887474Y1798929D01*
X1887474Y1851456D01*
X1888388Y1855724D01*
X1891284Y1861870D01*
X1893671Y1870811D01*
X1894535Y1880463D01*
X1894535Y1894332D01*
X1895297Y1898243D01*
X1897481Y1901494D01*
X1900783Y1903730D01*
X1905355Y1904492D01*
X1909216Y1903730D01*
X1912518Y1901494D01*
X1914702Y1898243D01*
X1915515Y1894332D01*
X1915515Y1880463D01*
X1916328Y1870811D01*
X1918716Y1861870D01*
X1921611Y1855724D01*
X1922525Y1851456D01*
X1922525Y1798929D01*
X1923389Y1789988D01*
X1925675Y1781860D01*
X1929485Y1774291D01*
X1934565Y1767535D01*
X1940814Y1761794D01*
X1948027Y1757324D01*
X1955952Y1754276D01*
X1964283Y1752752D01*
X1972716Y1752752D01*
X1980031Y1754073D01*
X1983333Y1754174D01*
X1986432Y1753209D01*
X1989074Y1751279D01*
X2027478Y1712874D01*
X2029866Y1709216D01*
X2030425Y1704848D01*
X2029155Y1700682D01*
X2026208Y1697431D01*
X2022195Y1695704D01*
X2019401Y1695196D01*
X2011527Y1692148D01*
X2004314Y1687677D01*
X1998014Y1681988D01*
X1992934Y1675180D01*
X1989124Y1667611D01*
X1986838Y1659432D01*
X1986025Y1651000D01*
X1986838Y1642567D01*
X1989124Y1634388D01*
X1992934Y1626819D01*
X1998014Y1620012D01*
X2004314Y1614322D01*
X2011527Y1609852D01*
X2019401Y1606804D01*
X2027783Y1605229D01*
X2036216Y1605229D01*
X2044598Y1606804D01*
X2052472Y1609852D01*
X2059686Y1614322D01*
X2065985Y1620012D01*
X2071065Y1626819D01*
X2074875Y1634388D01*
X2077008Y1642008D01*
X2078989Y1645716D01*
X2082292Y1648307D01*
X2086305Y1649374D01*
X2090470Y1648714D01*
X2093975Y1646428D01*
X2108962Y1631391D01*
X2114143Y1627276D01*
X2119833Y1624533D01*
X2125980Y1623161D01*
X2129434Y1622958D01*
X2176983Y1622958D01*
X2180844Y1622145D01*
X2184146Y1619961D01*
X2186330Y1616659D01*
X2187143Y1612798D01*
X2186330Y1608886D01*
X2184146Y1605584D01*
X1871878Y1293317D01*
X1868627Y1291132D01*
X1864817Y1290320D01*
X1861007Y1291031D01*
X1854047Y1293723D01*
X1845716Y1295247D01*
X1837283Y1295247D01*
X1828952Y1293723D01*
X1821027Y1290675D01*
X1813814Y1286205D01*
X1807565Y1280464D01*
X1802485Y1273708D01*
X1798675Y1266139D01*
X1796389Y1258011D01*
X1795525Y1249070D01*
X1795525Y1183843D01*
X1794611Y1179576D01*
X1791716Y1173429D01*
X1789328Y1164488D01*
X1788515Y1154836D01*
X1788515Y1140968D01*
X1787702Y1137056D01*
X1785518Y1133805D01*
X1782216Y1131570D01*
X1778355Y1130808D01*
G37*

%LPD*%
D10*
X3009900Y1257300D02*
G01*
X3109544Y1356944D01*
X3109544Y1689557D01*
X2920872Y1878228D01*
X2222500Y1878228D01*
X2153031Y1709775D02*
G01*
X2186736Y1743481D01*
X3009900Y1384300D02*
G01*
X3067354Y1441754D01*
X3067354Y1673352D01*
X3016199Y1724507D01*
X2205710Y1724507D01*
X2186736Y1743481D01*
X2186736Y1743481D02*
G01*
X2095500Y1834718D01*
X2095500Y1878228D01*
X1968500Y1878228D02*
G01*
X1968500Y1811781D01*
X2079904Y1700377D01*
X2079904Y1700377D02*
G01*
X2129129Y1651152D01*
X2247671Y1651152D01*
X2265451Y1668932D01*
X2857703Y1668932D01*
X3009900Y1516735D01*
X3009900Y1511300D01*
X2079909Y1700380D02*
G01*
X2032000Y1652470D01*
X2032000Y1651000D01*
X2744241Y1504950D02*
G01*
X2744241Y1256258D01*
X2813050Y1187450D01*
X1841500Y1169771D02*
G01*
X1841500Y1223060D01*
X2226792Y1608353D01*
X2317699Y1608353D01*
X1968500Y1169771D02*
G01*
X1968500Y1213840D01*
X2146503Y1391843D01*
X2095500Y1169771D02*
G01*
X2095500Y1225930D01*
X2494076Y1624507D01*
X2842513Y1624507D01*
X2878836Y1588185D01*
X2878836Y1507236D01*
X2813050Y1441450D01*
X2813050Y1568450D02*
G01*
X2621178Y1568450D01*
X2222500Y1169771D01*
D11*
G01*
X2222500Y1169771D03*
G01*
X2095500Y1169771D03*
G01*
X1968500Y1169771D03*
G01*
X1841500Y1169771D03*
G01*
X2222500Y1878228D03*
G01*
X2095500Y1878228D03*
G01*
X1968500Y1878228D03*
G01*
X1841500Y1878228D03*
D12*
G01*
X1841500Y1130300D03*
G01*
X1968500Y1130300D03*
G01*
X2095500Y1130300D03*
G01*
X2222500Y1130300D03*
G01*
X1841500Y1905000D03*
G01*
X1968500Y1905000D03*
G01*
X2095500Y1905000D03*
G01*
X2222500Y1905000D03*
D13*
G01*
X2813050Y1568450D03*
G01*
X2813050Y1441450D03*
G01*
X2813050Y1314450D03*
G01*
X2813050Y1187450D03*
G01*
X3009900Y1638300D03*
G01*
X3009900Y1511300D03*
G01*
X3009900Y1384300D03*
G01*
X3009900Y1257300D03*
D14*
G01*
X2146503Y1391843D03*
G01*
X2317699Y1608353D03*
G01*
X2744241Y1504950D03*
G01*
X2032000Y1651000D03*
G01*
X2153031Y1709775D03*
M02*
