G04 Layer: BottomSilkscreenLayer*
G04 EasyEDA v6.5.48, 2025-03-21 20:09:15*
G04 50cb3e7bfd794b938473e165b02c6de4,58ee3c18bac3456481f83482aa94e6a4,10*
G04 Gerber Generator version 0.2*
G04 Scale: 100 percent, Rotated: No, Reflected: No *
G04 Dimensions in millimeters *
G04 leading zeros omitted , absolute positions ,4 integer and 5 decimal *
%FSLAX45Y45*%
%MOMM*%

%ADD10C,0.1000*%
%ADD11C,0.1524*%
%ADD12C,0.3000*%

%LPD*%
D10*
X2146300Y1564363D02*
G01*
X2146300Y1526181D01*
X2120846Y1564363D02*
G01*
X2120846Y1526181D01*
X2146300Y1546181D02*
G01*
X2120846Y1546181D01*
X2108845Y1564363D02*
G01*
X2107026Y1562544D01*
X2105210Y1564363D01*
X2107026Y1566181D01*
X2108845Y1564363D01*
X2107026Y1551635D02*
G01*
X2107026Y1526181D01*
X2071390Y1564363D02*
G01*
X2071390Y1526181D01*
X2071390Y1546181D02*
G01*
X2075027Y1549819D01*
X2078664Y1551635D01*
X2084118Y1551635D01*
X2087755Y1549819D01*
X2091390Y1546181D01*
X2093208Y1540728D01*
X2093208Y1537091D01*
X2091390Y1531635D01*
X2087755Y1528000D01*
X2084118Y1526181D01*
X2078664Y1526181D01*
X2075027Y1528000D01*
X2071390Y1531635D01*
X2059391Y1540728D02*
G01*
X2037572Y1540728D01*
X2037572Y1544363D01*
X2039391Y1548000D01*
X2041210Y1549819D01*
X2044844Y1551635D01*
X2050300Y1551635D01*
X2053935Y1549819D01*
X2057572Y1546181D01*
X2059391Y1540728D01*
X2059391Y1537091D01*
X2057572Y1531635D01*
X2053935Y1528000D01*
X2050300Y1526181D01*
X2044844Y1526181D01*
X2041210Y1528000D01*
X2037572Y1531635D01*
X1997572Y1551635D02*
G01*
X1997572Y1526181D01*
X1997572Y1544363D02*
G01*
X1992119Y1549819D01*
X1988482Y1551635D01*
X1983028Y1551635D01*
X1979391Y1549819D01*
X1977572Y1544363D01*
X1977572Y1526181D01*
X1977572Y1544363D02*
G01*
X1972119Y1549819D01*
X1968482Y1551635D01*
X1963028Y1551635D01*
X1959391Y1549819D01*
X1957572Y1544363D01*
X1957572Y1526181D01*
X1945573Y1540728D02*
G01*
X1923755Y1540728D01*
X1923755Y1544363D01*
X1925573Y1548000D01*
X1927390Y1549819D01*
X1931027Y1551635D01*
X1936483Y1551635D01*
X1940118Y1549819D01*
X1943755Y1546181D01*
X1945573Y1540728D01*
X1945573Y1537091D01*
X1943755Y1531635D01*
X1940118Y1528000D01*
X1936483Y1526181D01*
X1931027Y1526181D01*
X1927390Y1528000D01*
X1923755Y1531635D01*
D11*
X2301120Y1302859D02*
G01*
X2301120Y1745140D01*
X1762879Y1745140D01*
X1762879Y1302859D01*
X2301120Y1302859D01*
D12*
G75*
G01
X2237511Y1378102D02*
G03X2237511Y1378102I-15011J0D01*
G75*
G01
X2313203Y1169772D02*
G03X2313203Y1169772I-15011J0D01*
M02*
